<mxfile host="app.diagrams.net" agent="Mozilla/5.0 (Windows NT 10.0; Win64; x64) AppleWebKit/537.36 (KHTML, like Gecko) Chrome/141.0.0.0 Safari/537.36" version="28.2.8">
  <diagram name="Page-1" id="m4VMnzPZBPMYjwCDkSPR">
    <mxGraphModel dx="869" dy="1125" grid="1" gridSize="10" guides="1" tooltips="1" connect="1" arrows="1" fold="1" page="1" pageScale="1" pageWidth="850" pageHeight="1100" math="0" shadow="0">
      <root>
        <mxCell id="0" />
        <mxCell id="1" parent="0" />
        <mxCell id="j-WfMGzeLP6DDtdIPs5l-1" value="" style="rounded=0;whiteSpace=wrap;html=1;" vertex="1" parent="1">
          <mxGeometry x="40" y="40" width="360" height="200" as="geometry" />
        </mxCell>
        <mxCell id="j-WfMGzeLP6DDtdIPs5l-7" value="" style="strokeWidth=2;html=1;shape=mxgraph.flowchart.document2;whiteSpace=wrap;size=0.25;" vertex="1" parent="1">
          <mxGeometry x="40" y="80" width="360" height="160" as="geometry" />
        </mxCell>
        <mxCell id="j-WfMGzeLP6DDtdIPs5l-5" value="" style="rounded=0;whiteSpace=wrap;html=1;fillColor=#990000;" vertex="1" parent="1">
          <mxGeometry x="60" y="200" width="50" height="20" as="geometry" />
        </mxCell>
        <mxCell id="j-WfMGzeLP6DDtdIPs5l-6" value="" style="rounded=0;whiteSpace=wrap;html=1;" vertex="1" parent="1">
          <mxGeometry x="120" y="200" width="50" height="20" as="geometry" />
        </mxCell>
        <mxCell id="j-WfMGzeLP6DDtdIPs5l-8" value="" style="ellipse;whiteSpace=wrap;html=1;aspect=fixed;" vertex="1" parent="1">
          <mxGeometry x="240" y="90" width="130" height="130" as="geometry" />
        </mxCell>
        <mxCell id="j-WfMGzeLP6DDtdIPs5l-9" value="Lorem ipsun paddind his 22." style="text;strokeColor=none;fillColor=none;align=left;verticalAlign=middle;spacingLeft=4;spacingRight=4;overflow=hidden;points=[[0,0.5],[1,0.5]];portConstraint=eastwest;rotatable=0;whiteSpace=wrap;html=1;fillStyle=auto;" vertex="1" parent="1">
          <mxGeometry x="50" y="40" width="140" height="40" as="geometry" />
        </mxCell>
        <mxCell id="j-WfMGzeLP6DDtdIPs5l-11" value="&lt;font style=&quot;font-size: 7px;&quot;&gt;&amp;lt;header class=&quot;main-header&quot;&amp;gt;&lt;/font&gt;" style="text;html=1;whiteSpace=wrap;strokeColor=none;fillColor=none;align=center;verticalAlign=middle;rounded=0;" vertex="1" parent="1">
          <mxGeometry x="40" y="80" width="125" height="40" as="geometry" />
        </mxCell>
        <mxCell id="j-WfMGzeLP6DDtdIPs5l-13" value="" style="rounded=0;whiteSpace=wrap;html=1;" vertex="1" parent="1">
          <mxGeometry x="40" y="280" width="440" height="240" as="geometry" />
        </mxCell>
        <mxCell id="j-WfMGzeLP6DDtdIPs5l-14" value="" style="rounded=0;whiteSpace=wrap;html=1;" vertex="1" parent="1">
          <mxGeometry x="40" y="280" width="440" height="40" as="geometry" />
        </mxCell>
        <mxCell id="j-WfMGzeLP6DDtdIPs5l-15" value="" style="ellipse;whiteSpace=wrap;html=1;" vertex="1" parent="1">
          <mxGeometry x="50" y="285" width="40" height="30" as="geometry" />
        </mxCell>
        <mxCell id="j-WfMGzeLP6DDtdIPs5l-16" value="" style="rounded=1;whiteSpace=wrap;html=1;" vertex="1" parent="1">
          <mxGeometry x="120" y="285" width="60" height="30" as="geometry" />
        </mxCell>
        <mxCell id="j-WfMGzeLP6DDtdIPs5l-17" value="" style="rounded=1;whiteSpace=wrap;html=1;" vertex="1" parent="1">
          <mxGeometry x="210" y="285" width="60" height="30" as="geometry" />
        </mxCell>
        <mxCell id="j-WfMGzeLP6DDtdIPs5l-18" value="" style="rounded=1;whiteSpace=wrap;html=1;" vertex="1" parent="1">
          <mxGeometry x="300" y="285" width="60" height="30" as="geometry" />
        </mxCell>
        <mxCell id="j-WfMGzeLP6DDtdIPs5l-19" value="&lt;h2&gt;List Item&lt;/h2&gt;" style="text;strokeColor=none;fillColor=none;align=left;verticalAlign=middle;spacingLeft=4;spacingRight=4;overflow=hidden;points=[[0,0.5],[1,0.5]];portConstraint=eastwest;rotatable=0;whiteSpace=wrap;html=1;" vertex="1" parent="1">
          <mxGeometry x="380" y="275" width="110" height="50" as="geometry" />
        </mxCell>
        <mxCell id="j-WfMGzeLP6DDtdIPs5l-20" value="&lt;h1 style=&quot;margin-top: 0px;&quot;&gt;Heading LIVESTORE 222&lt;/h1&gt;&lt;p&gt;Lorem ipsum dolor sit amet, consectetur adipisicing elit&lt;/p&gt;" style="text;html=1;whiteSpace=wrap;overflow=hidden;rounded=0;" vertex="1" parent="1">
          <mxGeometry x="50" y="330" width="160" height="120" as="geometry" />
        </mxCell>
        <mxCell id="j-WfMGzeLP6DDtdIPs5l-21" value="" style="ellipse;whiteSpace=wrap;html=1;" vertex="1" parent="1">
          <mxGeometry x="60" y="482.5" width="60" height="20" as="geometry" />
        </mxCell>
        <mxCell id="j-WfMGzeLP6DDtdIPs5l-22" value="" style="shape=dataStorage;whiteSpace=wrap;html=1;fixedSize=1;size=130;" vertex="1" parent="1">
          <mxGeometry x="230" y="320" width="250" height="200" as="geometry" />
        </mxCell>
        <mxCell id="j-WfMGzeLP6DDtdIPs5l-23" value="" style="strokeWidth=2;html=1;shape=mxgraph.flowchart.terminator;whiteSpace=wrap;rotation=-90;" vertex="1" parent="1">
          <mxGeometry x="221.25" y="363.75" width="178.75" height="112.5" as="geometry" />
        </mxCell>
        <mxCell id="j-WfMGzeLP6DDtdIPs5l-24" value="" style="verticalLabelPosition=bottom;verticalAlign=top;html=1;shape=mxgraph.flowchart.on-page_reference;" vertex="1" parent="1">
          <mxGeometry x="425" y="356.25" width="32.5" height="30" as="geometry" />
        </mxCell>
        <mxCell id="j-WfMGzeLP6DDtdIPs5l-25" value="Text" style="text;html=1;whiteSpace=wrap;strokeColor=none;fillColor=none;align=center;verticalAlign=middle;rounded=0;" vertex="1" parent="1">
          <mxGeometry x="411.25" y="386.25" width="60" height="30" as="geometry" />
        </mxCell>
        <mxCell id="j-WfMGzeLP6DDtdIPs5l-26" value="" style="verticalLabelPosition=bottom;verticalAlign=top;html=1;shape=mxgraph.flowchart.on-page_reference;" vertex="1" parent="1">
          <mxGeometry x="393" y="416.25" width="32.5" height="30" as="geometry" />
        </mxCell>
        <mxCell id="j-WfMGzeLP6DDtdIPs5l-27" value="Text" style="text;html=1;whiteSpace=wrap;strokeColor=none;fillColor=none;align=center;verticalAlign=middle;rounded=0;" vertex="1" parent="1">
          <mxGeometry x="380" y="446.25" width="60" height="30" as="geometry" />
        </mxCell>
        <mxCell id="j-WfMGzeLP6DDtdIPs5l-28" value="" style="rounded=1;whiteSpace=wrap;html=1;" vertex="1" parent="1">
          <mxGeometry x="140" y="482.5" width="55" height="20" as="geometry" />
        </mxCell>
        <mxCell id="j-WfMGzeLP6DDtdIPs5l-29" value="" style="rounded=0;whiteSpace=wrap;html=1;fillColor=none;" vertex="1" parent="1">
          <mxGeometry x="390" y="320" width="90" height="200" as="geometry" />
        </mxCell>
        <mxCell id="j-WfMGzeLP6DDtdIPs5l-30" value="" style="rounded=0;whiteSpace=wrap;html=1;fillColor=none;" vertex="1" parent="1">
          <mxGeometry x="230" y="320" width="250" height="200" as="geometry" />
        </mxCell>
        <mxCell id="j-WfMGzeLP6DDtdIPs5l-32" value="" style="rounded=0;whiteSpace=wrap;html=1;fillColor=none;" vertex="1" parent="1">
          <mxGeometry x="40" y="460" width="190" height="60" as="geometry" />
        </mxCell>
        <mxCell id="j-WfMGzeLP6DDtdIPs5l-33" style="edgeStyle=none;curved=1;rounded=0;orthogonalLoop=1;jettySize=auto;html=1;exitX=1;exitY=0;exitDx=0;exitDy=0;entryX=1.011;entryY=0.088;entryDx=0;entryDy=0;entryPerimeter=0;fontSize=12;startSize=8;endSize=8;" edge="1" parent="1" source="j-WfMGzeLP6DDtdIPs5l-29" target="j-WfMGzeLP6DDtdIPs5l-29">
          <mxGeometry relative="1" as="geometry" />
        </mxCell>
        <mxCell id="j-WfMGzeLP6DDtdIPs5l-34" value="ФОН:" style="text;html=1;whiteSpace=wrap;strokeColor=none;fillColor=none;align=center;verticalAlign=middle;rounded=0;" vertex="1" parent="1">
          <mxGeometry x="530" y="20" width="140" height="80" as="geometry" />
        </mxCell>
        <mxCell id="j-WfMGzeLP6DDtdIPs5l-35" value="" style="rounded=0;whiteSpace=wrap;html=1;" vertex="1" parent="1">
          <mxGeometry x="40" y="560" width="440" height="200" as="geometry" />
        </mxCell>
        <mxCell id="j-WfMGzeLP6DDtdIPs5l-40" value="" style="shape=flexArrow;endArrow=classic;html=1;rounded=0;fontSize=12;startSize=8;endSize=8;curved=1;width=22.35294117647059;entryX=0.5;entryY=0.75;entryDx=0;entryDy=0;entryPerimeter=0;exitX=1;exitY=0.5;exitDx=0;exitDy=0;" edge="1" parent="1" source="j-WfMGzeLP6DDtdIPs5l-35">
          <mxGeometry width="50" height="50" relative="1" as="geometry">
            <mxPoint x="330" y="659.41" as="sourcePoint" />
            <mxPoint x="230" y="659.41" as="targetPoint" />
          </mxGeometry>
        </mxCell>
      </root>
    </mxGraphModel>
  </diagram>
</mxfile>
